<svg width="121" height="122" viewBox="0 0 121 122" fill="none" xmlns="http://www.w3.org/2000/svg">
<g style="mix-blend-mode:luminosity" filter="url(#filter0_i)">
<g filter="url(#filter1_i)">
<path d="M110.931 81.7206L103.375 81.3246L106.053 30.2267L96.8619 29.745L95.6249 53.3467L68.596 51.9301L69.8329 28.3285L60.6416 27.8468L57.7881 82.2941L66.9795 82.7758L68.147 60.4984L95.1759 61.9149L94.0084 84.1923L110.755 85.07L110.931 81.7206ZM57.9636 78.9447L57.7881 82.2941L50.2325 81.8981L50.408 78.5487L57.9636 78.9447Z" fill="#E9E9E9"/>
</g>
<path d="M110.931 81.7206L111.43 81.7468L111.456 81.2475L110.957 81.2213L110.931 81.7206ZM103.375 81.3246L102.876 81.2985L102.85 81.7978L103.349 81.8239L103.375 81.3246ZM106.053 30.2267L106.553 30.2529L106.579 29.7536L106.079 29.7274L106.053 30.2267ZM96.8619 29.745L96.888 29.2457L96.3887 29.2196L96.3625 29.7189L96.8619 29.745ZM95.6249 53.3467L95.5988 53.846L96.0981 53.8721L96.1243 53.3728L95.6249 53.3467ZM68.596 51.9301L68.0967 51.904L68.0706 52.4033L68.5699 52.4295L68.596 51.9301ZM69.8329 28.3285L70.3323 28.3547L70.3584 27.8554L69.8591 27.8292L69.8329 28.3285ZM60.6416 27.8468L60.6677 27.3475L60.1684 27.3213L60.1422 27.8207L60.6416 27.8468ZM57.7881 82.2941L57.2888 82.2679L57.2626 82.7673L57.7619 82.7934L57.7881 82.2941ZM66.9795 82.7758L66.9533 83.2751L67.4526 83.3013L67.4788 82.802L66.9795 82.7758ZM68.147 60.4984L68.1732 59.9991L67.6738 59.9729L67.6477 60.4722L68.147 60.4984ZM95.1759 61.9149L95.6752 61.9411L95.7014 61.4418L95.2021 61.4156L95.1759 61.9149ZM94.0084 84.1923L93.5091 84.1662L93.4829 84.6655L93.9822 84.6917L94.0084 84.1923ZM110.755 85.07L110.729 85.5693L111.229 85.5955L111.255 85.0962L110.755 85.07ZM57.9636 78.9447L58.4629 78.9709L58.4891 78.4716L57.9898 78.4454L57.9636 78.9447ZM57.7881 82.2941L57.7619 82.7934L58.2612 82.8196L58.2874 82.3203L57.7881 82.2941ZM50.2325 81.8981L49.7332 81.872L49.707 82.3713L50.2063 82.3975L50.2325 81.8981ZM50.408 78.5487L50.4342 78.0494L49.9349 78.0232L49.9087 78.5226L50.408 78.5487ZM110.957 81.2213L103.401 80.8253L103.349 81.8239L110.905 82.2199L110.957 81.2213ZM103.875 81.3508L106.553 30.2529L105.554 30.2006L102.876 81.2985L103.875 81.3508ZM106.079 29.7274L96.888 29.2457L96.8357 30.2444L106.027 30.7261L106.079 29.7274ZM96.3625 29.7189L95.1256 53.3205L96.1243 53.3728L97.3612 29.7712L96.3625 29.7189ZM95.6511 52.8473L68.6222 51.4308L68.5699 52.4295L95.5988 53.846L95.6511 52.8473ZM69.0954 51.9563L70.3323 28.3547L69.3336 28.3024L68.0967 51.904L69.0954 51.9563ZM69.8591 27.8292L60.6677 27.3475L60.6154 28.3461L69.8068 28.8278L69.8591 27.8292ZM60.1422 27.8207L57.2888 82.2679L58.2874 82.3203L61.1409 27.873L60.1422 27.8207ZM57.7619 82.7934L66.9533 83.2751L67.0057 82.2765L57.8143 81.7948L57.7619 82.7934ZM67.4788 82.802L68.6463 60.5245L67.6477 60.4722L66.4802 82.7496L67.4788 82.802ZM68.1208 60.9977L95.1497 62.4142L95.2021 61.4156L68.1732 59.9991L68.1208 60.9977ZM94.6766 61.8887L93.5091 84.1662L94.5077 84.2185L95.6752 61.9411L94.6766 61.8887ZM93.9822 84.6917L110.729 85.5693L110.782 84.5707L94.0346 83.693L93.9822 84.6917ZM111.255 85.0962L111.43 81.7468L110.432 81.6944L110.256 85.0438L111.255 85.0962ZM57.4643 78.9185L57.2888 82.2679L58.2874 82.3203L58.4629 78.9709L57.4643 78.9185ZM57.8143 81.7948L50.2586 81.3988L50.2063 82.3975L57.7619 82.7934L57.8143 81.7948ZM50.7318 81.9243L50.9073 78.5749L49.9087 78.5226L49.7332 81.872L50.7318 81.9243ZM50.3818 79.048L57.9375 79.444L57.9898 78.4454L50.4342 78.0494L50.3818 79.048Z" fill="#00A6FB"/>
<path d="M58.1513 87.9009L57.9758 91.2503L15.0567 89.001L15.2322 85.6516L23.8005 86.1007C21.57 84.9424 19.5964 83.3549 17.8796 81.3383L23.4781 74.3677C26.8323 77.9282 30.1972 79.7968 33.5725 79.9737C35.9612 80.0989 38.0286 79.4001 39.7747 77.8774C41.5727 76.3575 42.5561 73.9877 42.7249 70.7681L44.1169 44.2065L26.8246 43.3003L27.2573 35.0436L53.741 36.4316L51.9407 70.7824C51.5162 78.8833 48.5493 84.3255 43.0401 87.109L58.1513 87.9009Z" fill="#EFEFEF"/>
<path d="M58.1513 87.9009L59.15 87.9533L59.2023 86.9546L58.2037 86.9023L58.1513 87.9009ZM57.9758 91.2503L57.9235 92.249L58.9221 92.3013L58.9744 91.3027L57.9758 91.2503ZM15.0567 89.001L14.0581 88.9487L14.0057 89.9473L15.0044 89.9997L15.0567 89.001ZM15.2322 85.6516L15.2846 84.653L14.2859 84.6007L14.2336 85.5993L15.2322 85.6516ZM23.8005 86.1007L23.7481 87.0993L24.2614 85.2132L23.8005 86.1007ZM17.8796 81.3383L17.0999 80.7121L16.5821 81.3568L17.1182 81.9865L17.8796 81.3383ZM23.4781 74.3677L24.2059 73.682L23.418 72.8456L22.6984 73.7415L23.4781 74.3677ZM39.7747 77.8774L39.1291 77.1138L39.1233 77.1187L39.1175 77.1238L39.7747 77.8774ZM44.1169 44.2065L45.1155 44.2589L45.1678 43.2603L44.1692 43.2079L44.1169 44.2065ZM26.8246 43.3003L25.826 43.248L25.7736 44.2466L26.7723 44.2989L26.8246 43.3003ZM27.2573 35.0436L27.3097 34.045L26.311 33.9927L26.2587 34.9913L27.2573 35.0436ZM53.741 36.4316L54.7396 36.4839L54.7919 35.4853L53.7933 35.4329L53.741 36.4316ZM43.0401 87.109L42.5891 86.2164L39.2352 87.911L42.9877 88.1076L43.0401 87.109ZM57.1527 87.8486L56.9772 91.198L58.9744 91.3027L59.15 87.9533L57.1527 87.8486ZM58.0281 90.2517L15.109 88.0024L15.0044 89.9997L57.9235 92.249L58.0281 90.2517ZM16.0553 89.0534L16.2309 85.704L14.2336 85.5993L14.0581 88.9487L16.0553 89.0534ZM15.1799 86.6503L23.7481 87.0993L23.8528 85.1021L15.2846 84.653L15.1799 86.6503ZM24.2614 85.2132C22.1517 84.1176 20.2786 82.6136 18.641 80.69L17.1182 81.9865C18.9142 84.0962 20.9884 85.7671 23.3396 86.9882L24.2614 85.2132ZM18.6593 81.9645L24.2577 74.9939L22.6984 73.7415L17.0999 80.7121L18.6593 81.9645ZM22.7502 75.0535C26.2024 78.7178 29.7925 80.777 33.5202 80.9723L33.6249 78.9751C30.6018 78.8167 27.4623 77.1385 24.2059 73.682L22.7502 75.0535ZM33.5202 80.9723C36.1589 81.1106 38.4832 80.3306 40.432 78.6311L39.1175 77.1238C37.5741 78.4697 35.7636 79.0872 33.6249 78.9751L33.5202 80.9723ZM40.4203 78.6411C42.498 76.8847 43.5458 74.2105 43.7235 70.8204L41.7262 70.7158C41.5664 73.7649 40.6475 75.8302 39.1291 77.1138L40.4203 78.6411ZM43.7235 70.8204L45.1155 44.2589L43.1183 44.1542L41.7262 70.7158L43.7235 70.8204ZM44.1692 43.2079L26.8769 42.3017L26.7723 44.2989L44.0645 45.2052L44.1692 43.2079ZM27.8232 43.3526L28.256 35.096L26.2587 34.9913L25.826 43.248L27.8232 43.3526ZM27.205 36.0423L53.6886 37.4302L53.7933 35.4329L27.3097 34.045L27.205 36.0423ZM52.7424 36.3792L50.9421 70.7301L52.9394 70.8348L54.7396 36.4839L52.7424 36.3792ZM50.9421 70.7301C50.5296 78.6019 47.6778 83.6454 42.5891 86.2164L43.491 88.0015C49.4208 85.0056 52.5028 79.1647 52.9394 70.8348L50.9421 70.7301ZM42.9877 88.1076L58.099 88.8996L58.2037 86.9023L43.0924 86.1104L42.9877 88.1076Z" fill="#00A6FB"/>
<g filter="url(#filter2_i)">
<ellipse cx="60.5" cy="61" rx="60.5" ry="61" fill="#969696" fill-opacity="0.08"/>
</g>
<path d="M120 61C120 94.1449 93.3532 121 60.5 121C27.6468 121 1 94.1449 1 61C1 27.8551 27.6468 1 60.5 1C93.3532 1 120 27.8551 120 61Z" stroke="#00A6FB" stroke-width="2"/>
</g>
<defs>
<filter id="filter0_i" x="0" y="0" width="121" height="126" filterUnits="userSpaceOnUse" color-interpolation-filters="sRGB">
<feFlood flood-opacity="0" result="BackgroundImageFix"/>
<feBlend mode="normal" in="SourceGraphic" in2="BackgroundImageFix" result="shape"/>
<feColorMatrix in="SourceAlpha" type="matrix" values="0 0 0 0 0 0 0 0 0 0 0 0 0 0 0 0 0 0 127 0" result="hardAlpha"/>
<feOffset dy="4"/>
<feGaussianBlur stdDeviation="2"/>
<feComposite in2="hardAlpha" operator="arithmetic" k2="-1" k3="1"/>
<feColorMatrix type="matrix" values="0 0 0 0 0 0 0 0 0 0 0 0 0 0 0 0 0 0 0.25 0"/>
<feBlend mode="normal" in2="shape" result="effect1_innerShadow"/>
</filter>
<filter id="filter1_i" x="47.707" y="26.3213" width="63.7494" height="59.2742" filterUnits="userSpaceOnUse" color-interpolation-filters="sRGB">
<feFlood flood-opacity="0" result="BackgroundImageFix"/>
<feBlend mode="normal" in="SourceGraphic" in2="BackgroundImageFix" result="shape"/>
<feColorMatrix in="SourceAlpha" type="matrix" values="0 0 0 0 0 0 0 0 0 0 0 0 0 0 0 0 0 0 127 0" result="hardAlpha"/>
<feOffset dx="-2" dy="-1"/>
<feGaussianBlur stdDeviation="1"/>
<feComposite in2="hardAlpha" operator="arithmetic" k2="-1" k3="1"/>
<feColorMatrix type="matrix" values="0 0 0 0 0.588235 0 0 0 0 0.588235 0 0 0 0 0.588235 0 0 0 0.25 0"/>
<feBlend mode="normal" in2="shape" result="effect1_innerShadow"/>
</filter>
<filter id="filter2_i" x="-4" y="0" width="125" height="123" filterUnits="userSpaceOnUse" color-interpolation-filters="sRGB">
<feFlood flood-opacity="0" result="BackgroundImageFix"/>
<feBlend mode="normal" in="SourceGraphic" in2="BackgroundImageFix" result="shape"/>
<feColorMatrix in="SourceAlpha" type="matrix" values="0 0 0 0 0 0 0 0 0 0 0 0 0 0 0 0 0 0 127 0" result="hardAlpha"/>
<feOffset dx="-6" dy="1"/>
<feGaussianBlur stdDeviation="2"/>
<feComposite in2="hardAlpha" operator="arithmetic" k2="-1" k3="1"/>
<feColorMatrix type="matrix" values="0 0 0 0 0 0 0 0 0 0 0 0 0 0 0 0 0 0 0.11 0"/>
<feBlend mode="luminosity" in2="shape" result="effect1_innerShadow"/>
</filter>
</defs>
</svg>
