<svg width="275" height="264" viewBox="0 0 275 264" fill="none" xmlns="http://www.w3.org/2000/svg">
<path d="M86 106L81.4245 108.016L81.4245 108.016L86 106ZM63.1473 12.4846C60.6535 11.2986 57.6705 12.3588 56.4846 14.8526L37.1585 55.4913C35.9726 57.9851 37.0328 60.9681 39.5266 62.1541C42.0204 63.34 45.0034 62.2798 46.1893 59.786L63.3681 23.6627L99.4913 40.8414C101.985 42.0274 104.968 40.9672 106.154 38.4734C107.34 35.9796 106.28 32.9966 103.786 31.8106L63.1473 12.4846ZM203.549 220.837L202.764 225.775L202.764 225.775L203.549 220.837ZM181.186 214.547L179.282 219.171L179.282 219.171L181.186 214.547ZM156.839 204.522L158.743 199.899L158.743 199.899L156.839 204.522ZM128.234 186.578L124.901 190.304L124.901 190.304L128.234 186.578ZM123.888 182.689L127.222 178.963L127.222 178.963L123.888 182.689ZM94.9205 137.164L90.1301 138.597L90.1301 138.597L94.9205 137.164ZM81.4245 108.016C81.4645 108.107 81.6384 108.51 81.9262 108.936C81.9622 108.99 82.5139 109.875 83.6054 110.501C84.2566 110.875 85.6345 111.453 87.3573 111.006C89.1046 110.552 90.0409 109.35 90.4403 108.656C91.0924 107.525 91.105 106.438 91.1078 106.381C91.1237 106.069 91.1078 105.816 91.0985 105.692C91.0785 105.427 91.0424 105.192 91.0198 105.054C90.9302 104.509 90.7505 103.712 90.5442 102.848C90.1088 101.022 89.3867 98.2057 88.465 94.7126C86.6167 87.7075 83.9254 77.8296 81.0125 67.3623C75.2147 46.5282 68.4436 23.013 65.7113 15.3255L56.2887 18.6744C58.8749 25.951 65.5386 49.0576 71.3786 70.0433C74.2847 80.486 76.9631 90.3174 78.7959 97.2639C79.7148 100.747 80.4112 103.466 80.8172 105.168C81.0317 106.067 81.1285 106.532 81.1518 106.674C81.1574 106.708 81.1392 106.609 81.1267 106.443C81.1212 106.369 81.1064 106.156 81.1207 105.875C81.1219 105.85 81.1303 104.784 81.7754 103.665C82.1714 102.977 83.1035 101.778 84.846 101.326C86.564 100.88 87.9364 101.457 88.5814 101.827C89.6604 102.446 90.1969 103.315 90.215 103.342C90.3687 103.57 90.4639 103.754 90.4967 103.819C90.5391 103.902 90.5659 103.962 90.5755 103.984L81.4245 108.016ZM236.786 221.062L204.335 215.9L202.764 225.775L235.215 230.938L236.786 221.062ZM183.09 209.924L158.743 199.899L154.935 209.145L179.282 219.171L183.09 209.924ZM131.568 182.852L127.222 178.963L120.554 186.415L124.901 190.304L131.568 182.852ZM99.7108 135.731C97.2805 127.605 94.8026 119.258 93.0603 113.234C92.1863 110.213 91.5093 107.817 91.1162 106.333C91.0186 105.965 90.9431 105.67 90.8882 105.445C90.828 105.198 90.8107 105.108 90.8127 105.119C90.8145 105.129 90.821 105.166 90.8289 105.221C90.8355 105.268 90.8512 105.385 90.8609 105.543C90.8663 105.63 90.8953 106.058 90.8075 106.603C90.7667 106.857 90.6492 107.489 90.2586 108.201C89.8453 108.955 88.838 110.269 86.9354 110.68C85.1562 111.064 83.8031 110.384 83.2588 110.048C82.6763 109.688 82.3077 109.292 82.1548 109.119C81.8309 108.754 81.6427 108.427 81.5992 108.353C81.5265 108.227 81.4792 108.132 81.4609 108.094C81.4391 108.049 81.4265 108.021 81.4245 108.016L90.5755 103.984C90.5248 103.869 90.4095 103.611 90.2461 103.33C90.1827 103.22 89.9774 102.869 89.6392 102.487C89.4792 102.307 89.1042 101.905 88.5161 101.541C87.966 101.201 86.6079 100.52 84.8243 100.905C82.9174 101.317 81.9065 102.634 81.4903 103.393C81.0967 104.111 80.9769 104.751 80.9346 105.014C80.8436 105.579 80.8722 106.035 80.8799 106.159C80.9009 106.5 80.9525 106.79 80.9735 106.906C81.0662 107.416 81.2536 108.154 81.4496 108.894C81.8744 110.498 82.5793 112.989 83.4542 116.013C85.2098 122.083 87.6986 130.466 90.1301 138.597L99.7108 135.731ZM127.222 178.963C114.24 167.348 104.697 152.401 99.7108 135.731L90.1301 138.597C95.6502 157.054 106.211 173.582 120.554 186.415L127.222 178.963ZM204.335 215.9C197.045 214.74 189.915 212.734 183.09 209.924L179.282 219.171C186.826 222.277 194.707 224.493 202.764 225.775L204.335 215.9ZM158.743 199.899C148.784 195.798 139.595 190.033 131.568 182.852L124.901 190.304C133.772 198.242 143.928 204.613 154.935 209.145L158.743 199.899Z" fill="black"/>
<path d="M122.461 146.119L118.063 139.7L132.55 116.932L132.378 116.68C131.039 118.071 129.474 119.381 127.682 120.608L112.234 131.193L108.896 126.32L137.163 106.953L141.588 113.411L127.26 135.956L127.406 136.168C128.591 134.996 130.118 133.77 131.987 132.489L147.416 121.918L150.728 126.751L122.461 146.119ZM132.9 161.355L135.137 158.316L135.057 158.2C133.273 158.305 131.864 158.115 130.831 157.63C129.798 157.145 128.857 156.283 128.009 155.046C126.923 153.46 126.659 151.804 127.218 150.076C127.786 148.361 129.127 146.78 131.24 145.331C133.509 143.777 135.615 143.243 137.558 143.73C139.524 144.221 141.412 145.664 143.224 148.059L145.3 150.841L146.847 149.781C148.858 148.404 149.267 146.845 148.075 145.105C147.192 143.816 145.673 142.678 143.52 141.691L145.859 137.475C148.678 138.687 150.949 140.55 152.671 143.063C154.234 145.345 154.765 147.529 154.263 149.616C153.782 151.706 152.343 153.573 149.946 155.216L135.483 165.125L132.9 161.355ZM133.475 154.398C134.12 155.339 135.051 155.799 136.268 155.78C137.508 155.764 138.83 155.275 140.235 154.312L142.052 153.067L140.889 151.534C140.02 150.405 139.094 149.771 138.108 149.632C137.131 149.506 136.044 149.854 134.845 150.675C133.066 151.894 132.609 153.135 133.475 154.398ZM140.69 172.723L158.373 152.339L162.03 157.676L151.44 168.966C150.939 169.479 150.181 170.197 149.166 171.12C148.172 172.048 147.444 172.698 146.98 173.072L147.033 173.15C147.429 172.898 148.019 172.57 148.802 172.165C149.595 171.774 150.329 171.422 151.006 171.11C151.682 170.798 156.951 168.647 166.812 164.655L170.468 169.992L145.061 179.104L140.69 172.723Z" fill="black"/>
</svg>
